<svg xmlns="http://www.w3.org/2000/svg" width="512" height="512" viewBox="0 0 512 512">
  <rect width="512" height="512" rx="96" fill="#0d0d0f"/>
  <rect width="512" height="512" rx="96" fill="none" stroke="#3b82f6" stroke-width="8" opacity="0.35"/>
  <g fill="#e6e6e6">
    <!-- finder TL -->
    <rect x="96" y="96" width="104" height="104" rx="16"/>
    <rect x="120" y="120" width="56" height="56" rx="8" fill="#0d0d0f"/>
    <rect x="136" y="136" width="24" height="24" rx="4"/>
    <!-- finder TR -->
    <rect x="312" y="96" width="104" height="104" rx="16"/>
    <rect x="336" y="120" width="56" height="56" rx="8" fill="#0d0d0f"/>
    <rect x="352" y="136" width="24" height="24" rx="4"/>
    <!-- finder BL -->
    <rect x="96" y="312" width="104" height="104" rx="16"/>
    <rect x="120" y="336" width="56" height="56" rx="8" fill="#0d0d0f"/>
    <rect x="136" y="352" width="24" height="24" rx="4"/>
    <!-- data dots -->
    <rect x="240" y="96" width="24" height="24" rx="4"/>
    <rect x="288" y="120" width="24" height="24" rx="4"/>
    <rect x="240" y="168" width="24" height="24" rx="4"/>
    <rect x="288" y="200" width="24" height="24" rx="4"/>
    <rect x="240" y="240" width="24" height="24" rx="4"/>
    <rect x="288" y="288" width="24" height="24" rx="4"/>
    <rect x="336" y="240" width="24" height="24" rx="4"/>
    <rect x="392" y="288" width="24" height="24" rx="4"/>
    <rect x="240" y="336" width="24" height="24" rx="4"/>
    <rect x="288" y="392" width="24" height="24" rx="4"/>
    <rect x="336" y="336" width="24" height="24" rx="4"/>
    <rect x="392" y="392" width="24" height="24" rx="4"/>
    <rect x="336" y="392" width="24" height="24" rx="4" fill="#3b82f6"/>
    <rect x="392" y="336" width="24" height="24" rx="4"/>
  </g>
</svg>
